<?xml version="1.0" standalone="no"?><!DOCTYPE svg PUBLIC "-//W3C//DTD SVG 1.1//EN" "http://www.w3.org/Graphics/SVG/1.1/DTD/svg11.dtd"><svg t="1755053380885" class="icon" viewBox="0 0 1024 1024" version="1.1" xmlns="http://www.w3.org/2000/svg" p-id="6975" xmlns:xlink="http://www.w3.org/1999/xlink" width="200" height="200"><path d="M960 512c0 6.9-0.2 13.7-0.5 20.5-0.2 4.1-0.4 8.3-0.7 12.4-0.1 1.3-0.2 2.6-0.3 3.8-1.2 14.5-3 28.7-5.5 42.7 0 0.1-0.1 0.3-0.1 0.4-1.1 6.2-2.4 12.4-3.8 18.6-1.5 6.5-3 12.9-4.8 19.3-3.2 12-7 23.8-11.2 35.3-1.3 3.5-2.6 7-3.9 10.4-0.7 1.9-1.5 3.7-2.2 5.6-3.6 8.8-7.5 17.5-11.6 26.1-8.6 17.8-18.4 35-29.3 51.4-0.2 0.3-0.4 0.7-0.7 1-2.1 3.2-4.3 6.5-6.6 9.6-3.9 5.5-7.8 10.9-11.9 16.2-4.5 5.9-9.2 11.6-14 17.2-37.9 44.6-84.3 81.5-136.6 108.3C655 942.3 585.6 960 512 960c-144.5 0-273-68.4-354.9-174.5-3.3-4.3-6.6-8.7-9.7-13.1-2.9-4.1-5.8-8.2-8.6-12.4-0.2-0.2-0.3-0.5-0.5-0.7-0.1-0.2-0.3-0.4-0.4-0.6-2.8-4.2-5.5-8.4-8.1-12.7-7.7-12.5-14.8-25.4-21.2-38.7-4.6-9.6-9-19.3-12.9-29.3-0.5-1.1-0.9-2.3-1.4-3.5-0.5-1.2-0.9-2.4-1.4-3.6-0.7-1.9-1.5-3.9-2.2-5.8-2.5-7-4.9-14-7.1-21.2-1.4-4.7-2.8-9.4-4.1-14.1-3.6-13.1-6.5-26.4-8.9-39.9-2.4-13.5-4.2-27.3-5.3-41.2-0.1-1.2-0.2-2.5-0.3-3.8-0.2-2.1-0.3-4.2-0.4-6.4-0.1-2-0.2-4.1-0.3-6.1-0.3-6.8-0.5-13.7-0.5-20.5 0-12.2 0.5-24.3 1.5-36.3 0-0.3 0-0.7 0.1-1 0.9-10.6 2.1-21.1 3.7-31.5 0.7-4.3 1.4-8.5 2.2-12.7 1-5.6 2.2-11.2 3.4-16.7C119.6 213.6 298.3 64 512 64c63.6 0 124.1 13.2 178.9 37.2 26.9 11.7 52.4 26 76.2 42.5 90.8 63 157.1 158.7 182.1 270.1 1.2 5.5 2.4 11.1 3.4 16.7 0.8 4.2 1.5 8.4 2.1 12.6 1.7 10.8 3 21.6 3.8 32.7 0.8 10.1 1.3 20.2 1.4 30.5 0.1 1.8 0.1 3.8 0.1 5.7z" fill="#A4E7FF" p-id="6976"></path><path d="M958.5 548.8c-1.2 14.5-3 28.7-5.5 42.7 0 0.1-0.1 0.3-0.1 0.4-1.1 6.2-2.4 12.4-3.8 18.6-1.5 6.5-3 12.9-4.8 19.3-3.2 12-7 23.8-11.2 35.3-1.3 3.5-2.6 7-3.9 10.4-0.7 1.9-1.5 3.7-2.2 5.6-3.6 8.8-7.5 17.5-11.6 26.1-8.6 17.8-18.4 35-29.3 51.4-0.2 0.3-0.4 0.7-0.7 1-2.1 3.2-4.3 6.5-6.6 9.6-3.9 5.5-7.8 10.9-11.9 16.2-4.5 5.9-9.2 11.6-14 17.2-37.9 44.5-84.3 81.4-136.6 108.2C655 942.3 585.6 960 512 960c-144.5 0-273-68.4-354.9-174.5-3.3-4.3-6.6-8.7-9.7-13.1-2.9-4.1-5.8-8.2-8.6-12.4-0.2-0.2-0.3-0.5-0.5-0.7-0.1-0.2-0.3-0.4-0.4-0.6-2.8-4.2-5.5-8.4-8.1-12.7-7.7-12.5-14.8-25.4-21.2-38.7-4.6-9.6-9-19.3-12.9-29.3-0.5-1.1-0.9-2.3-1.4-3.5-0.5-1.2-0.9-2.4-1.4-3.6-0.7-1.9-1.5-3.9-2.2-5.8-2.5-7-4.9-14-7.1-21.2-1.4-4.7-2.8-9.4-4.1-14.1-3.6-13.1-6.5-26.4-8.9-39.9-2.4-13.5-4.2-27.3-5.3-41.2h3.6c30.6 0 44.6-9.9 62.3-22.3 19.7-13.9 42.1-29.7 85.3-29.7s65.6 15.8 85.3 29.7c17.7 12.5 31.7 22.3 62.3 22.3 30.6 0 44.6-9.9 62.3-22.3 19.7-13.9 42.1-29.7 85.3-29.7s65.6 15.8 85.3 29.7c17.7 12.5 31.7 22.3 62.3 22.3s44.6-9.9 62.3-22.3c19.7-13.9 42.1-29.7 85.3-29.7 43.2 0 65.6 15.8 85.3 29.7 17.7 12.5 31.7 22.3 62.3 22.3 1.6 0.1 2.8 0.1 4 0.1z" fill="#4373F6" p-id="6977"></path><path d="M782.2 463.7l109-109c3.4-3.4 3.4-9.1 0-12.5l-52.9-52.9c-3.4-3.4-9.1-3.4-12.5 0l-109 109c-35.6-28.1-87.9-25.7-120.7 7.1L355.2 646.2c-23.2 23.2-23.2 61.3 0 84.5l94.5 94.5c23.2 23.2 61.3 23.2 84.5 0L775 584.4c33-32.8 35.3-85 7.2-120.7z" fill="#FDFDF9" opacity=".8" p-id="6978"></path><path d="M775.1 584.4L534.3 825.2c-16.9 16.9-41.6 21.5-62.7 13.9 5.9-2.8 11.5-6.7 16.4-11.6l240.8-240.8c47.3-47.3 47.1-80.7 7.1-120.7l133.3-133.3c3.4-3.4 3.4-9.1 0-12.5l22.1 22.1c3.4 3.4 3.4 9.1 0 12.5l-109 109c28 35.6 25.7 87.8-7.2 120.6z" fill="#FDFDF9" opacity=".8" p-id="6979"></path><path d="M933.1 291.4l-97 97c-3.4 3.4-9.1 3.4-12.5 0L792 356.9c-3.4-3.4-3.4-9.1 0-12.5l97-97c3.4-3.4 9.1-3.4 12.5 0l31.6 31.6c3.5 3.4 3.5 9 0 12.4z" fill="#F6980E" p-id="6980"></path><path d="M886.8 337.7l-50.7 50.7c-3.4 3.4-9.1 3.4-12.5 0L792 356.9c-3.4-3.4-3.4-9.1 0-12.5l50.7-50.7 44.1 44z" fill="#F3D000" p-id="6981"></path><path d="M933.1 665.1c-1.3 3.5-2.6 7-3.9 10.4-0.7 1.9-1.5 3.7-2.2 5.6-3.6 8.8-7.5 17.5-11.6 26.1-8.6 17.8-18.4 35-29.3 51.4-0.2 0.3-0.4 0.7-0.7 1-2.1 3.2-4.3 6.5-6.6 9.6-3.9 5.5-7.8 10.9-11.9 16.2-4.5 5.9-9.2 11.6-14 17.2-37.9 44.5-84.3 81.4-136.6 108.2C655 942.3 585.6 960 512 960c-144.5 0-273-68.4-354.9-174.5-3.3-4.3-6.6-8.7-9.7-13.1-2.9-4.1-5.8-8.2-8.6-12.4-0.2-0.2-0.3-0.5-0.5-0.7-0.1-0.2-0.3-0.4-0.4-0.6-2.8-4.2-5.5-8.4-8.1-12.7-7.7-12.5-14.8-25.4-21.2-38.7-4.6-9.6-9-19.3-12.9-29.3-0.5-1.1-0.9-2.3-1.4-3.5-0.5-1.2-0.9-2.4-1.4-3.6-0.7-1.9-1.5-3.9-2.2-5.8 16.8-3.5 27.7-11.2 40.6-20.3 19.7-13.9 42.1-29.7 85.3-29.7s65.6 15.8 85.3 29.7c17.7 12.5 31.7 22.3 62.3 22.3 30.6 0 44.6-9.9 62.3-22.3 19.7-13.9 42.1-29.7 85.3-29.7s65.6 15.8 85.3 29.7c17.7 12.5 31.7 22.3 62.3 22.3s44.6-9.9 62.3-22.3c19.7-13.9 42.1-29.7 85.3-29.7 43.2 0 65.6 15.8 85.3 29.7 13.2 9.1 24.1 16.8 40.8 20.3z" fill="#47D1FA" p-id="6982"></path><path d="M886 758.6c-0.2 0.3-0.4 0.7-0.7 1-2.1 3.2-4.3 6.5-6.6 9.6-3.9 5.5-7.8 10.9-11.9 16.2-4.5 5.9-9.2 11.6-14 17.2-37.8 44.5-84.2 81.4-136.5 108.2C655 942.3 585.6 960 512 960c-144.5 0-273-68.4-354.9-174.5-3.3-4.3-6.6-8.7-9.7-13.1-2.9-4.1-5.8-8.2-8.6-12.4-0.2-0.2-0.3-0.5-0.5-0.7-0.1-0.2-0.3-0.4-0.4-0.6 18.3-12.6 40.2-25.1 78.8-25.1 43.2 0 65.6 15.8 85.3 29.7 17.7 12.5 31.7 22.3 62.3 22.3 30.6 0 44.6-9.9 62.3-22.3 19.7-13.9 42.1-29.7 85.3-29.7s65.6 15.8 85.3 29.6c17.7 12.5 31.7 22.4 62.3 22.4s44.6-9.9 62.3-22.3c19.7-13.9 42.1-29.7 85.3-29.7 38.7-0.1 60.7 12.4 78.9 25z" fill="#A4E7FF" p-id="6983"></path></svg>