<?xml version="1.0" standalone="no"?><!DOCTYPE svg PUBLIC "-//W3C//DTD SVG 1.1//EN" "http://www.w3.org/Graphics/SVG/1.1/DTD/svg11.dtd"><svg t="1755062362396" class="icon" viewBox="0 0 1024 1024" version="1.1" xmlns="http://www.w3.org/2000/svg" p-id="25785" xmlns:xlink="http://www.w3.org/1999/xlink" width="200" height="200"><path d="M512 512m-512 0a512 512 0 1 0 1024 0 512 512 0 1 0-1024 0Z" fill="#76B9FF" p-id="25786"></path><path d="M518.346667 224c-179.626667 0-325.258667 121.098667-325.258667 270.506667 0 98.090667 63.018667 183.754667 157.013333 231.189333-9.92 47.072-49.109333 84.970667-49.109333 84.970667 60.384-2.026667 119.893333-39.808 139.84-53.706667a387.84 387.84 0 0 0 77.514667 8.053333c179.594667 0 325.226667-121.12 325.226666-270.506666 0-149.408-145.632-270.506667-325.226666-270.506667zM355.989333 543.477333c-25.472 0-45.685333-22.101333-45.685333-49.354666 0-27.264 20.213333-44.810667 45.685333-44.810667 25.450667 0 46.485333 17.546667 46.485334 44.8 0 27.264-21.034667 49.365333-46.485334 49.365333z m162.485334 0c-25.450667 0-45.674667-22.101333-45.674667-49.354666 0-27.264 20.224-44.810667 45.674667-44.810667s46.506667 17.546667 46.506666 44.8c0 27.264-21.056 49.365333-46.506666 49.365333z m162.122666 0c-25.472 0-45.685333-22.101333-45.685333-49.354666 0-27.264 20.213333-44.810667 45.685333-44.810667 25.450667 0 46.506667 17.546667 46.506667 44.8 0 27.264-21.056 49.365333-46.506667 49.365333z" fill="#FFFFFF" p-id="25787"></path></svg>